<svg xmlns="http://www.w3.org/2000/svg" viewBox="0 0 64 80" fill="none" stroke="currentColor" stroke-width="1.5" stroke-linecap="round" stroke-linejoin="round">
  <!-- Shalwar - traditional Pakistani loose trousers -->
  <!-- Waistband -->
  <path d="M20 8 L44 8 Q48 8 48 12 L48 16 Q48 20 44 20 L20 20 Q16 20 16 16 L16 12 Q16 8 20 8"/>
  <!-- Left leg -->
  <path d="M20 20 L16 48 Q14 64 12 72 Q11 76 16 76 L24 76 Q28 76 27 72 L26 48"/>
  <!-- Right leg -->
  <path d="M44 20 L48 48 Q50 64 52 72 Q53 76 48 76 L40 76 Q36 76 37 72 L38 48"/>
  <!-- Crotch seam -->
  <path d="M26 48 L32 40 L38 48"/>
  <!-- Pleat lines -->
  <path d="M18 24 L20 32"/>
  <path d="M46 24 L44 32"/>
</svg>